<?xml version="1.0" encoding="UTF-8" standalone="no"?><!DOCTYPE svg PUBLIC "-//W3C//DTD SVG 1.1//EN"
  "http://www.w3.org/Graphics/SVG/1.1/DTD/svg11.dtd">
<svg xmlns:xlink="http://www.w3.org/1999/xlink" xmlns:serif="http://www.serif.com/" width="100%" height="100%"
     viewBox="0 0 200 200" version="1.1" xmlns="http://www.w3.org/2000/svg" xml:space="preserve"
     style="fill-rule:evenodd;clip-rule:evenodd;stroke-linejoin:round;stroke-miterlimit:2;"><rect id="Artboard5" x="0" y="0" width="200" height="200" style="fill:none;"/>
  <g id="simplified"><path d="M144.538,52.861c7.572,0.179 14.625,2.171 20.627,5.494c0.009,0.019 1.808,3.691 2.375,4.999c1.341,3.059 2.393,6.254 3.123,9.551c0.398,1.769 0.699,3.572 0.905,5.396c1.558,13.827 -9.035,28.116 -21.696,29.172c4.944,-4.816 5.644,-22.52 -1.789,-28.306c-0.187,-0.143 -0.374,-0.285 -0.567,-0.412c-0.037,-0.026 -0.026,-0.039 -0.173,0.064c-2.895,0.922 -5.976,1.541 -9.189,1.809c-7.247,0.604 -14.219,-0.657 -20.291,-3.36l-0.157,-0.068c-3.281,-1.436 -6.294,-3.309 -8.947,-5.523c0.107,-0.204 0.216,-0.406 0.328,-0.607c6.584,-9.859 18.263,-16.885 32.211,-18.047c1.086,-0.091 2.166,-0.144 3.24,-0.162Z"/>
    <path id="_-Curve-" serif:id="(Curve)"
          d="M104.128,104.574c-0.3,1.97 -0.456,3.986 -0.456,6.037c0,22.407 18.57,40.599 41.443,40.599c0.961,0 1.913,-0.032 2.857,-0.095c-21.839,24.661 -54.201,34.73 -81.462,22.918c-34.979,-15.156 -48.4,-60.632 -29.952,-101.49c18.447,-40.858 61.822,-61.725 96.8,-46.569c5.551,2.405 10.56,5.574 14.982,9.367c7.244,5.914 12.961,13.404 16.752,21.649l0,0c-6.164,-3.645 -13.372,-5.761 -21.077,-5.813c0.096,-0.004 0.192,-0.007 0.287,-0.01c-0.288,-0.487 -0.586,-0.964 -0.894,-1.434c-7.635,-11.705 -21.622,-18.772 -36.661,-17.082c-16.891,1.898 -29.943,14.293 -33.164,29.772c-0.789,3.786 -0.994,7.745 -0.52,11.792c2.017,17.22 14.38,27.927 31.065,30.359Zm4.155,-32.08c-0.11,0.231 -0.217,0.462 -0.323,0.694c1.519,1.362 3.148,2.603 4.872,3.704c1.384,0.884 2.829,1.678 4.326,2.373l0.161,0.074c6.224,2.941 13.336,4.231 20.696,3.404c3.263,-0.367 6.386,-1.129 9.315,-2.23l0.003,-0.003c0.068,-0.037 -0.167,0.723 -0.175,0.757c-0.03,0.079 -0.062,0.171 -0.107,0.251c-1.536,3.742 -3.681,7.208 -6.302,10.253l-0.01,0.015c-6.146,7.16 -14.997,12.099 -25.162,13.256l-0.089,0.007c-0.36,0.03 -0.708,0.073 -1.079,0.105c-3.293,0.276 -6.935,-0.024 -10.085,-0.552c-0.597,-2.108 -1.037,-4.326 -1.309,-6.649c-0.531,-4.53 -0.302,-8.961 0.582,-13.2c0.905,-4.347 2.502,-8.477 4.686,-12.259Zm0.15,-0.258l-0.15,0.258l0.079,-0.137l0.071,-0.121Zm0.159,-0.268l-0.154,0.259c0.051,-0.086 0.103,-0.173 0.154,-0.259Zm0.154,-0.255l-0.153,0.253l0.081,-0.135l0.072,-0.118Zm0.163,-0.267l-0.157,0.256c0.052,-0.086 0.104,-0.171 0.157,-0.256Zm0.156,-0.252l-0.154,0.248l0.083,-0.133l0.071,-0.115Zm0.168,-0.265l-0.159,0.252c0.053,-0.084 0.106,-0.168 0.159,-0.252Zm0.16,-0.249l-0.157,0.244l0.085,-0.132l0.072,-0.112Zm0.172,-0.264l-0.162,0.249c0.054,-0.083 0.108,-0.166 0.162,-0.249Zm0.163,-0.245l-0.159,0.239l0.086,-0.131l0.073,-0.108Zm0.176,-0.262l-0.165,0.244c0.055,-0.081 0.11,-0.163 0.165,-0.244Zm0.166,-0.242l-0.16,0.233l0.087,-0.128l0.073,-0.105Zm0.181,-0.261l-0.168,0.241c0.056,-0.081 0.111,-0.161 0.168,-0.241Zm0.168,-0.239l-0.162,0.229l0.089,-0.126l0.073,-0.103Zm0.185,-0.259l-0.17,0.238c0.057,-0.08 0.113,-0.159 0.17,-0.238Zm0.172,-0.235l-0.164,0.224l0.091,-0.124l0.073,-0.1Zm0.189,-0.257l-0.172,0.233c0.057,-0.078 0.115,-0.156 0.172,-0.233Zm0.175,-0.233l-0.165,0.221l0.091,-0.124l0.074,-0.097Zm0.194,-0.255l-0.176,0.23c0.059,-0.077 0.117,-0.153 0.176,-0.23Zm0.177,-0.229l-0.167,0.216l0.093,-0.122l0.074,-0.094Zm0.198,-0.253l-0.178,0.227c0.059,-0.076 0.118,-0.152 0.178,-0.227Zm0.18,-0.226l-0.169,0.212l0.095,-0.12l0.074,-0.092Zm0.202,-0.251l-0.18,0.223c0.06,-0.074 0.12,-0.149 0.18,-0.223Zm0.183,-0.223l-0.17,0.208l0.096,-0.118l0.074,-0.09Zm0.206,-0.248l-0.182,0.219c0.06,-0.073 0.121,-0.146 0.182,-0.219Zm0.186,-0.22l-0.172,0.204l0.098,-0.117l0.074,-0.087Zm0.211,-0.246l-0.186,0.216c0.062,-0.072 0.124,-0.145 0.186,-0.216Zm0.188,-0.217l-0.174,0.2l0.1,-0.115l0.074,-0.085Zm0.215,-0.244l-0.188,0.213c0.062,-0.071 0.125,-0.142 0.188,-0.213Zm0.191,-0.213l-0.176,0.196l0.102,-0.114l0.074,-0.082Zm0.218,-0.242l-0.19,0.21c0.064,-0.07 0.127,-0.14 0.19,-0.21Zm0.194,-0.21l-0.177,0.192l0.103,-0.112l0.074,-0.08Zm0.223,-0.239l-0.193,0.206c0.064,-0.069 0.129,-0.137 0.193,-0.206Zm0.196,-0.207l-0.178,0.189l0.104,-0.111l0.074,-0.078Zm0.227,-0.236l-0.195,0.203c0.065,-0.068 0.13,-0.136 0.195,-0.203Zm0.199,-0.204l-0.18,0.185l0.106,-0.109l0.074,-0.076Zm0.231,-0.234l-0.197,0.2c0.065,-0.067 0.131,-0.133 0.197,-0.2Zm0.201,-0.2l-0.182,0.181l0.108,-0.108l0.074,-0.073Zm0.235,-0.231l-0.2,0.196c0.067,-0.066 0.133,-0.131 0.2,-0.196Zm0.204,-0.198l-0.184,0.178l0.11,-0.106l0.074,-0.072Zm0.239,-0.228l-0.202,0.193c0.067,-0.064 0.134,-0.129 0.202,-0.193Zm0.206,-0.194l-0.185,0.175l0.111,-0.105l0.074,-0.07Zm0.243,-0.225l-0.205,0.19c0.068,-0.064 0.137,-0.127 0.205,-0.19Zm0.209,-0.191l-0.187,0.171l0.112,-0.103l0.075,-0.068Zm0.246,-0.222l-0.206,0.186c0.068,-0.062 0.137,-0.124 0.206,-0.186Zm0.212,-0.188l-0.189,0.168l0.114,-0.102l0.075,-0.066Zm0.25,-0.219l-0.209,0.183c0.069,-0.061 0.139,-0.122 0.209,-0.183Zm0.214,-0.184l-0.191,0.164l0.116,-0.1l0.075,-0.064Zm0.254,-0.216l-0.212,0.179c0.071,-0.06 0.141,-0.12 0.212,-0.179Zm0.217,-0.182l-0.194,0.162l0.119,-0.099l0.075,-0.063Zm0.257,-0.212l-0.214,0.176c0.071,-0.059 0.142,-0.117 0.214,-0.176Zm0.219,-0.178l-0.195,0.158l0.12,-0.098l0.075,-0.06Zm0.261,-0.21l-0.216,0.174c0.072,-0.058 0.144,-0.116 0.216,-0.174Zm0.221,-0.174l-0.196,0.155l0.121,-0.097l0.075,-0.058Zm0.265,-0.206l-0.218,0.169c0.072,-0.056 0.145,-0.113 0.218,-0.169Zm0.224,-0.172l-0.199,0.152l0.124,-0.095l0.075,-0.057Zm0.268,-0.202l-0.221,0.166c0.074,-0.056 0.147,-0.111 0.221,-0.166Zm0.226,-0.169l-0.2,0.149l0.125,-0.093l0.075,-0.056Zm0.272,-0.199l-0.223,0.163c0.074,-0.054 0.148,-0.109 0.223,-0.163Zm0.229,-0.165l-0.203,0.146l0.127,-0.092l0.076,-0.054Zm0.275,-0.195l-0.226,0.16c0.075,-0.054 0.15,-0.107 0.226,-0.16Zm0.231,-0.162l-0.205,0.143l0.129,-0.091l0.076,-0.052Zm0.278,-0.192l-0.227,0.157c0.075,-0.053 0.151,-0.105 0.227,-0.157Zm0.233,-0.158l-0.207,0.14l0.132,-0.089l0.075,-0.051Zm0.282,-0.188l-0.23,0.153c0.077,-0.051 0.153,-0.103 0.23,-0.153Zm0.236,-0.155l-0.209,0.137l0.133,-0.088l0.076,-0.049Zm0.285,-0.185l-0.232,0.15c0.077,-0.05 0.154,-0.1 0.232,-0.15Zm0.238,-0.151l-0.212,0.134l0.136,-0.087l0.076,-0.047Zm0.288,-0.181l-0.234,0.146c0.078,-0.049 0.156,-0.098 0.234,-0.146Zm0.24,-0.148l-0.213,0.131l0.138,-0.085l0.075,-0.046Zm0.292,-0.177l-0.237,0.143c0.079,-0.048 0.158,-0.096 0.237,-0.143Zm0.242,-0.145l-0.215,0.129l0.14,-0.084l0.075,-0.045Zm0.295,-0.173l-0.239,0.14c0.08,-0.047 0.159,-0.093 0.239,-0.14Zm0.245,-0.141l-0.218,0.126l0.142,-0.083l0.076,-0.043Zm0.298,-0.169l-0.241,0.136c0.08,-0.045 0.16,-0.091 0.241,-0.136Zm0.246,-0.138l-0.22,0.123l0.145,-0.081l0.075,-0.042Zm0.301,-0.165l-0.243,0.133c0.081,-0.044 0.162,-0.089 0.243,-0.133Zm0.249,-0.134l-0.222,0.12l0.147,-0.079l0.075,-0.041Zm0.304,-0.161l-0.245,0.13c0.082,-0.044 0.163,-0.087 0.245,-0.13Zm0.251,-0.13l-0.225,0.116l0.15,-0.077l0.075,-0.039Zm0.308,-0.157l-0.248,0.126c0.083,-0.043 0.165,-0.085 0.248,-0.126Zm0.253,-0.127l-0.228,0.114l0.152,-0.077l0.076,-0.037Zm0.31,-0.153l-0.25,0.123c0.083,-0.042 0.167,-0.083 0.25,-0.123Zm0.255,-0.124l-0.23,0.111l0.154,-0.074l0.076,-0.037Zm0.313,-0.148l-0.252,0.119c0.084,-0.04 0.168,-0.08 0.252,-0.119Zm0.257,-0.12l-0.232,0.108l0.157,-0.073l0.075,-0.035Zm0.317,-0.144l-0.254,0.116c0.084,-0.039 0.169,-0.078 0.254,-0.116Zm0.259,-0.116l-0.235,0.105l0.159,-0.072l0.076,-0.033Zm0.319,-0.14l-0.256,0.112c0.085,-0.038 0.17,-0.075 0.256,-0.112Zm0.261,-0.113l-0.237,0.102l0.161,-0.069l0.076,-0.033Zm0.322,-0.135l-0.258,0.108c0.085,-0.036 0.172,-0.072 0.258,-0.108Zm0.263,-0.109l-0.24,0.099l0.164,-0.068l0.076,-0.031Zm0.324,-0.131l-0.26,0.105c0.087,-0.035 0.174,-0.07 0.26,-0.105Zm0.266,-0.105l-0.243,0.096l0.167,-0.066l0.076,-0.03Zm0.327,-0.127l-0.262,0.102c0.087,-0.034 0.174,-0.068 0.262,-0.102Zm0.267,-0.101l-0.245,0.093l0.169,-0.064l0.076,-0.029Zm0.33,-0.122l-0.264,0.098c0.088,-0.033 0.176,-0.066 0.264,-0.098Zm0.269,-0.097l-0.248,0.089l0.173,-0.062l0.075,-0.027Zm0.333,-0.118l-0.267,0.094c0.089,-0.031 0.178,-0.063 0.267,-0.094Zm0.271,-0.093l-0.251,0.086l0.175,-0.06l0.076,-0.026Zm0.335,-0.113l-0.268,0.09c0.089,-0.03 0.178,-0.06 0.268,-0.09Zm0.273,-0.09l-0.254,0.083l0.178,-0.058l0.076,-0.025Zm0.338,-0.108l-0.271,0.086c0.09,-0.029 0.18,-0.058 0.271,-0.086Zm0.274,-0.086l-0.256,0.08l0.181,-0.057l0.075,-0.023Zm0.341,-0.103l-0.273,0.082c0.091,-0.028 0.182,-0.055 0.273,-0.082Zm0.276,-0.082l-0.259,0.076l0.184,-0.054l0.075,-0.022Zm0.343,-0.099l-0.274,0.079c0.091,-0.027 0.182,-0.053 0.274,-0.079Zm0.278,-0.078l-0.262,0.073l0.187,-0.052l0.075,-0.021Zm0.346,-0.094l-0.277,0.075c0.092,-0.025 0.184,-0.05 0.277,-0.075Zm0.279,-0.074l-0.264,0.07l0.189,-0.05l0.075,-0.02Zm0.348,-0.089l-0.278,0.071c0.093,-0.024 0.186,-0.047 0.278,-0.071Zm0.282,-0.069l-0.268,0.066l0.193,-0.048l0.075,-0.018Zm0.35,-0.085l-0.28,0.067c0.093,-0.022 0.187,-0.045 0.28,-0.067Zm0.283,-0.065l-0.27,0.062l0.196,-0.045l0.074,-0.017Zm0.353,-0.08l-0.282,0.064c0.094,-0.022 0.188,-0.043 0.282,-0.064Zm0.285,-0.061l-0.273,0.059l0.198,-0.043l0.075,-0.016Zm0.355,-0.074l-0.284,0.059c0.095,-0.02 0.19,-0.04 0.284,-0.059Zm0.287,-0.058l-0.277,0.056l0.202,-0.041l0.075,-0.015Zm0.357,-0.069l-0.286,0.055c0.095,-0.019 0.191,-0.037 0.286,-0.055Zm0.288,-0.053l-0.279,0.051l0.205,-0.038l0.074,-0.013Zm0.36,-0.064l-0.288,0.051c0.096,-0.018 0.192,-0.035 0.288,-0.051Zm0.289,-0.05l-0.282,0.048l0.208,-0.035l0.074,-0.013Zm0.362,-0.058l-0.289,0.046c0.096,-0.015 0.193,-0.031 0.289,-0.046Zm0.291,-0.045l-0.285,0.044l0.211,-0.033l0.074,-0.011Zm0.365,-0.054l-0.292,0.043c0.097,-0.015 0.195,-0.029 0.292,-0.043Zm0.292,-0.041l-0.289,0.04l0.215,-0.03l0.074,-0.01Zm0.367,-0.048l-0.293,0.038c0.097,-0.013 0.195,-0.026 0.293,-0.038Zm0.294,-0.036l-0.293,0.036l0.219,-0.028l0.074,-0.008Zm0.368,-0.044l-0.295,0.035l0.074,-0.009l0.221,-0.026Zm0.288,-0.031l-0.072,0.008l0.009,-0.001l0.063,-0.007Zm0.23,-0.024l-0.086,0.009l0.018,-0.002l0.068,-0.007Zm0.222,-0.021l-0.092,0.008l0.026,-0.002l0.066,-0.006Zm0.22,-0.021l-0.096,0.009l0.035,-0.003l0.061,-0.006Zm0.218,-0.019l-0.098,0.008l0.043,-0.003l0.055,-0.005Zm0.217,-0.018l-0.1,0.008l0.052,-0.004l0.048,-0.004Zm0.218,-0.017l-0.104,0.008l0.062,-0.005l0.042,-0.003Zm0.216,-0.016l-0.107,0.008l0.073,-0.006l0.034,-0.002Zm0.217,-0.015l-0.114,0.008l0.087,-0.006l0.027,-0.002Zm0.217,-0.014l-0.128,0.008l0.107,-0.006l0.021,-0.002Zm1.029,-0.05c-0.326,0.012 -0.653,0.028 -0.98,0.047c0.327,-0.019 0.654,-0.035 0.98,-0.047Z"/>
    <circle cx="112.004" cy="52.851" r="5.219"/>
    <path
      d="M110.116,42.498c5.021,0 9.096,3.987 9.096,8.899c0,4.911 -4.075,8.898 -9.096,8.898c-5.02,0 -9.096,-3.987 -9.096,-8.898c0,-4.912 4.076,-8.899 9.096,-8.899Zm0,1.202c4.343,0 7.868,3.449 7.868,7.697c0,4.248 -3.525,7.696 -7.868,7.696c-4.342,0 -7.867,-3.448 -7.867,-7.696c0,-4.248 3.525,-7.697 7.867,-7.697Z"/></g></svg>
