<?xml version="1.0" encoding="UTF-8" standalone="no"?><!DOCTYPE svg PUBLIC "-//W3C//DTD SVG 1.1//EN" "http://www.w3.org/Graphics/SVG/1.1/DTD/svg11.dtd"><svg width="100%" height="100%" viewBox="0 0 200 200" version="1.1" xmlns="http://www.w3.org/2000/svg" xmlns:xlink="http://www.w3.org/1999/xlink" xml:space="preserve" xmlns:serif="http://www.serif.com/" style="fill-rule:evenodd;clip-rule:evenodd;stroke-linejoin:round;stroke-miterlimit:2;"><rect id="Artboard5" x="0" y="0" width="200" height="200" style="fill:none;"/><g id="simplified"><path d="M154.714,41.8c9.349,0.22 18.057,2.68 25.467,6.783c0.011,0.023 2.233,4.557 2.932,6.172c1.657,3.777 2.955,7.721 3.857,11.792c0.491,2.185 0.863,4.41 1.117,6.663c1.923,17.071 -11.155,34.713 -26.787,36.016c6.104,-5.946 6.968,-27.804 -2.209,-34.948c-0.231,-0.176 -0.462,-0.351 -0.701,-0.508c-0.045,-0.033 -0.032,-0.049 -0.212,0.079c-3.575,1.138 -7.379,1.903 -11.347,2.233c-8.947,0.746 -17.554,-0.811 -25.052,-4.149l-0.193,-0.084c-4.051,-1.772 -7.771,-4.084 -11.047,-6.819c0.133,-0.251 0.268,-0.501 0.405,-0.749c8.129,-12.172 22.549,-20.846 39.77,-22.282c1.341,-0.112 2.674,-0.178 4,-0.199Z" style="fill:#fff;"/><path id="_-Curve-" serif:id="(Curve)" d="M104.822,105.647c-0.371,2.432 -0.563,4.921 -0.563,7.454c0,27.665 22.927,50.126 51.168,50.126c1.186,0 2.362,-0.04 3.527,-0.118c-26.964,30.448 -66.919,42.88 -100.578,28.296c-43.186,-18.712 -59.757,-74.859 -36.981,-125.305c22.777,-50.445 76.33,-76.209 119.516,-57.497c6.854,2.97 13.037,6.882 18.497,11.565c8.944,7.302 16.002,16.55 20.683,26.729l0,0c-7.61,-4.499 -16.509,-7.112 -26.022,-7.177c0.118,-0.005 0.236,-0.009 0.354,-0.012c-0.356,-0.601 -0.724,-1.191 -1.104,-1.77c-9.427,-14.452 -26.696,-23.178 -45.264,-21.091c-20.854,2.344 -36.969,17.647 -40.945,36.758c-0.976,4.675 -1.228,9.562 -0.643,14.559c2.49,21.261 17.755,34.48 38.355,37.483Zm5.13,-39.607c-0.136,0.285 -0.269,0.57 -0.399,0.857c1.875,1.681 3.887,3.213 6.015,4.572c1.709,1.092 3.493,2.073 5.342,2.93l0.198,0.092c7.684,3.631 16.466,5.224 25.553,4.202c4.029,-0.453 7.884,-1.394 11.5,-2.753l0.004,-0.003c0.084,-0.046 -0.207,0.892 -0.216,0.934c-0.037,0.097 -0.077,0.212 -0.132,0.311c-1.897,4.619 -4.544,8.898 -7.781,12.658l-0.013,0.019c-7.588,8.84 -18.515,14.937 -31.066,16.366l-0.11,0.009c-0.444,0.037 -0.873,0.09 -1.332,0.129c-4.065,0.341 -8.562,-0.029 -12.451,-0.682c-0.737,-2.602 -1.281,-5.34 -1.617,-8.208c-0.655,-5.594 -0.372,-11.065 0.72,-16.298c1.116,-5.367 3.088,-10.466 5.785,-15.135Zm0.185,-0.319l-0.185,0.319l0.098,-0.17l0.087,-0.149Zm0.196,-0.331l-0.189,0.32c0.062,-0.107 0.126,-0.214 0.189,-0.32Zm0.19,-0.315l-0.188,0.313l0.1,-0.168l0.088,-0.145Zm0.201,-0.329l-0.193,0.315c0.064,-0.105 0.129,-0.21 0.193,-0.315Zm0.194,-0.311l-0.191,0.306l0.102,-0.165l0.089,-0.141Zm0.207,-0.328l-0.197,0.311c0.065,-0.104 0.131,-0.207 0.197,-0.311Zm0.197,-0.307l-0.193,0.301l0.104,-0.163l0.089,-0.138Zm0.212,-0.326l-0.2,0.307c0.067,-0.103 0.133,-0.205 0.2,-0.307Zm0.201,-0.303l-0.195,0.295l0.106,-0.161l0.089,-0.134Zm0.218,-0.323l-0.203,0.302c0.067,-0.101 0.135,-0.202 0.203,-0.302Zm0.205,-0.299l-0.198,0.288l0.108,-0.158l0.09,-0.13Zm0.223,-0.322l-0.207,0.297c0.069,-0.099 0.138,-0.198 0.207,-0.297Zm0.208,-0.295l-0.2,0.283l0.11,-0.156l0.09,-0.127Zm0.229,-0.319l-0.21,0.292c0.07,-0.097 0.14,-0.195 0.21,-0.292Zm0.211,-0.291l-0.201,0.277l0.111,-0.154l0.09,-0.123Zm0.235,-0.318l-0.214,0.289c0.071,-0.097 0.142,-0.193 0.214,-0.289Zm0.215,-0.287l-0.204,0.272l0.113,-0.152l0.091,-0.12Zm0.239,-0.315l-0.216,0.285c0.072,-0.095 0.144,-0.19 0.216,-0.285Zm0.219,-0.283l-0.206,0.267l0.115,-0.15l0.091,-0.117Zm0.244,-0.312l-0.219,0.28c0.073,-0.094 0.146,-0.187 0.219,-0.28Zm0.223,-0.279l-0.208,0.261l0.117,-0.148l0.091,-0.113Zm0.25,-0.31l-0.223,0.276c0.074,-0.092 0.148,-0.184 0.223,-0.276Zm0.225,-0.275l-0.21,0.256l0.119,-0.146l0.091,-0.11Zm0.255,-0.307l-0.225,0.271c0.074,-0.09 0.15,-0.181 0.225,-0.271Zm0.229,-0.271l-0.212,0.251l0.121,-0.144l0.091,-0.107Zm0.26,-0.304l-0.228,0.267c0.076,-0.09 0.152,-0.179 0.228,-0.267Zm0.233,-0.268l-0.215,0.247l0.123,-0.142l0.092,-0.105Zm0.265,-0.301l-0.232,0.263c0.077,-0.088 0.154,-0.176 0.232,-0.263Zm0.236,-0.263l-0.217,0.242l0.125,-0.141l0.092,-0.101Zm0.27,-0.298l-0.235,0.258c0.078,-0.086 0.156,-0.173 0.235,-0.258Zm0.239,-0.26l-0.219,0.237l0.127,-0.138l0.092,-0.099Zm0.275,-0.295l-0.238,0.254c0.079,-0.085 0.159,-0.169 0.238,-0.254Zm0.242,-0.256l-0.22,0.233l0.129,-0.136l0.091,-0.097Zm0.281,-0.291l-0.241,0.25c0.08,-0.084 0.16,-0.167 0.241,-0.25Zm0.245,-0.252l-0.223,0.228l0.131,-0.134l0.092,-0.094Zm0.285,-0.288l-0.244,0.246c0.081,-0.083 0.163,-0.165 0.244,-0.246Zm0.249,-0.248l-0.225,0.224l0.133,-0.133l0.092,-0.091Zm0.29,-0.285l-0.247,0.242c0.082,-0.081 0.164,-0.162 0.247,-0.242Zm0.252,-0.244l-0.227,0.22l0.135,-0.131l0.092,-0.089Zm0.294,-0.281l-0.249,0.238c0.083,-0.08 0.166,-0.159 0.249,-0.238Zm0.255,-0.24l-0.229,0.215l0.137,-0.129l0.092,-0.086Zm0.3,-0.278l-0.253,0.234c0.084,-0.078 0.168,-0.156 0.253,-0.234Zm0.258,-0.236l-0.231,0.211l0.139,-0.127l0.092,-0.084Zm0.304,-0.274l-0.255,0.23c0.085,-0.077 0.17,-0.154 0.255,-0.23Zm0.261,-0.232l-0.233,0.207l0.141,-0.126l0.092,-0.081Zm0.309,-0.27l-0.258,0.225c0.086,-0.075 0.172,-0.15 0.258,-0.225Zm0.264,-0.228l-0.236,0.203l0.144,-0.124l0.092,-0.079Zm0.314,-0.267l-0.261,0.222c0.086,-0.074 0.174,-0.148 0.261,-0.222Zm0.267,-0.224l-0.238,0.2l0.146,-0.123l0.092,-0.077Zm0.318,-0.262l-0.264,0.218c0.088,-0.073 0.176,-0.146 0.264,-0.218Zm0.27,-0.22l-0.24,0.196l0.148,-0.121l0.092,-0.075Zm0.756,-10.617c0.548,4.674 -2.875,8.89 -7.646,9.427c-4.766,0.535 -9.075,-2.812 -9.622,-7.486c-0.547,-4.669 2.875,-8.89 7.641,-9.426c4.771,-0.536 9.08,2.816 9.627,7.485Zm-0.433,10.359l-0.267,0.213c0.089,-0.071 0.178,-0.142 0.267,-0.213Zm0.273,-0.216l-0.243,0.191l0.151,-0.119l0.092,-0.072Zm0.327,-0.255l-0.27,0.21c0.09,-0.07 0.18,-0.14 0.27,-0.21Zm0.276,-0.211l-0.245,0.188l0.153,-0.118l0.092,-0.07Zm0.331,-0.251l-0.272,0.206c0.09,-0.069 0.181,-0.137 0.272,-0.206Zm0.28,-0.207l-0.248,0.184l0.155,-0.116l0.093,-0.068Zm0.335,-0.246l-0.275,0.201c0.091,-0.067 0.183,-0.134 0.275,-0.201Zm0.282,-0.204l-0.25,0.181l0.157,-0.114l0.093,-0.067Zm0.34,-0.241l-0.278,0.197c0.092,-0.066 0.185,-0.132 0.278,-0.197Zm0.285,-0.2l-0.253,0.177l0.16,-0.112l0.093,-0.065Zm0.344,-0.237l-0.281,0.194c0.093,-0.065 0.187,-0.129 0.281,-0.194Zm0.288,-0.195l-0.256,0.173l0.163,-0.11l0.093,-0.063Zm0.348,-0.233l-0.284,0.19c0.094,-0.064 0.189,-0.127 0.284,-0.19Zm0.291,-0.191l-0.258,0.17l0.165,-0.109l0.093,-0.061Zm0.352,-0.228l-0.287,0.185c0.096,-0.062 0.191,-0.123 0.287,-0.185Zm0.293,-0.187l-0.26,0.166l0.167,-0.107l0.093,-0.059Zm0.356,-0.223l-0.289,0.181c0.096,-0.061 0.193,-0.121 0.289,-0.181Zm0.297,-0.183l-0.264,0.163l0.171,-0.106l0.093,-0.057Zm0.36,-0.218l-0.292,0.177c0.097,-0.06 0.195,-0.119 0.292,-0.177Zm0.299,-0.179l-0.266,0.159l0.173,-0.104l0.093,-0.055Zm0.364,-0.213l-0.294,0.172c0.097,-0.058 0.196,-0.115 0.294,-0.172Zm0.302,-0.175l-0.269,0.156l0.176,-0.102l0.093,-0.054Zm0.368,-0.208l-0.297,0.168c0.099,-0.056 0.198,-0.112 0.297,-0.168Zm0.305,-0.17l-0.272,0.151l0.178,-0.1l0.094,-0.051Zm0.371,-0.204l-0.3,0.164c0.1,-0.055 0.2,-0.11 0.3,-0.164Zm0.308,-0.166l-0.275,0.148l0.181,-0.098l0.094,-0.05Zm0.375,-0.199l-0.303,0.16c0.101,-0.053 0.202,-0.107 0.303,-0.16Zm0.31,-0.161l-0.278,0.145l0.185,-0.097l0.093,-0.048Zm0.379,-0.194l-0.305,0.156c0.102,-0.052 0.204,-0.104 0.305,-0.156Zm0.313,-0.156l-0.281,0.14l0.188,-0.094l0.093,-0.046Zm0.383,-0.189l-0.308,0.152c0.102,-0.051 0.205,-0.102 0.308,-0.152Zm0.315,-0.152l-0.284,0.137l0.191,-0.093l0.093,-0.044Zm0.387,-0.184l-0.311,0.147c0.103,-0.049 0.207,-0.098 0.311,-0.147Zm0.317,-0.147l-0.287,0.133l0.194,-0.09l0.093,-0.043Zm0.39,-0.179l-0.313,0.143c0.104,-0.048 0.209,-0.095 0.313,-0.143Zm0.32,-0.143l-0.29,0.13l0.197,-0.089l0.093,-0.041Zm0.394,-0.173l-0.316,0.139c0.105,-0.047 0.211,-0.093 0.316,-0.139Zm0.323,-0.139l-0.293,0.126l0.199,-0.086l0.094,-0.04Zm0.397,-0.167l-0.319,0.134c0.106,-0.045 0.213,-0.09 0.319,-0.134Zm0.325,-0.134l-0.296,0.122l0.203,-0.084l0.093,-0.038Zm0.401,-0.162l-0.322,0.13c0.107,-0.044 0.214,-0.087 0.322,-0.13Zm0.327,-0.13l-0.299,0.119l0.206,-0.082l0.093,-0.037Zm0.404,-0.156l-0.324,0.125c0.108,-0.042 0.216,-0.084 0.324,-0.125Zm0.33,-0.125l-0.303,0.115l0.21,-0.08l0.093,-0.035Zm0.408,-0.151l-0.327,0.121c0.109,-0.041 0.218,-0.081 0.327,-0.121Zm0.332,-0.12l-0.306,0.111l0.212,-0.077l0.094,-0.034Zm0.41,-0.145l-0.329,0.116c0.11,-0.039 0.22,-0.078 0.329,-0.116Zm0.335,-0.115l-0.31,0.106l0.217,-0.075l0.093,-0.031Zm0.414,-0.14l-0.332,0.111c0.111,-0.037 0.221,-0.074 0.332,-0.111Zm0.337,-0.111l-0.313,0.103l0.219,-0.072l0.094,-0.031Zm0.417,-0.133l-0.334,0.106c0.111,-0.035 0.222,-0.071 0.334,-0.106Zm0.339,-0.106l-0.317,0.099l0.224,-0.07l0.093,-0.029Zm0.42,-0.128l-0.336,0.102c0.112,-0.034 0.224,-0.068 0.336,-0.102Zm0.341,-0.101l-0.319,0.095l0.226,-0.068l0.093,-0.027Zm0.424,-0.122l-0.339,0.097c0.113,-0.032 0.226,-0.065 0.339,-0.097Zm0.343,-0.096l-0.323,0.09l0.23,-0.064l0.093,-0.026Zm0.427,-0.116l-0.341,0.093c0.113,-0.032 0.227,-0.062 0.341,-0.093Zm0.345,-0.091l-0.327,0.086l0.234,-0.062l0.093,-0.024Zm0.43,-0.11l-0.344,0.088c0.115,-0.03 0.229,-0.059 0.344,-0.088Zm0.347,-0.086l-0.33,0.082l0.238,-0.06l0.092,-0.022Zm0.433,-0.104l-0.346,0.083c0.115,-0.028 0.231,-0.056 0.346,-0.083Zm0.35,-0.081l-0.334,0.077l0.241,-0.056l0.093,-0.021Zm0.435,-0.098l-0.348,0.078c0.116,-0.027 0.232,-0.053 0.348,-0.078Zm0.352,-0.076l-0.338,0.073l0.245,-0.054l0.093,-0.019Zm0.438,-0.092l-0.35,0.073c0.116,-0.025 0.233,-0.049 0.35,-0.073Zm0.354,-0.071l-0.341,0.069l0.249,-0.051l0.092,-0.018Zm0.441,-0.085l-0.353,0.068c0.118,-0.023 0.236,-0.046 0.353,-0.068Zm0.356,-0.066l-0.345,0.064l0.253,-0.047l0.092,-0.017Zm0.444,-0.079l-0.355,0.063c0.118,-0.022 0.237,-0.042 0.355,-0.063Zm0.358,-0.061l-0.349,0.059l0.257,-0.044l0.092,-0.015Zm0.447,-0.073l-0.358,0.058c0.119,-0.019 0.238,-0.039 0.358,-0.058Zm0.359,-0.055l-0.353,0.054l0.261,-0.04l0.092,-0.014Zm0.45,-0.066l-0.36,0.052c0.12,-0.017 0.24,-0.035 0.36,-0.052Zm0.361,-0.05l-0.357,0.049l0.265,-0.037l0.092,-0.012Zm0.452,-0.06l-0.362,0.047c0.121,-0.016 0.241,-0.032 0.362,-0.047Zm0.363,-0.045l-0.361,0.044l0.27,-0.033l0.091,-0.011Zm0.455,-0.053l-0.364,0.042l0.091,-0.011l0.273,-0.031Zm0.356,-0.039l-0.089,0.009l0.011,-0.001l0.078,-0.008Zm0.284,-0.029l-0.106,0.01l0.021,-0.002l0.085,-0.008Zm0.274,-0.027l-0.113,0.011l0.031,-0.004l0.082,-0.007Zm0.271,-0.025l-0.118,0.01l0.043,-0.004l0.075,-0.006Zm0.269,-0.024l-0.121,0.01l0.053,-0.005l0.068,-0.005Zm0.269,-0.023l-0.125,0.011l0.065,-0.006l0.06,-0.005Zm0.268,-0.021l-0.128,0.01l0.077,-0.006l0.051,-0.004Zm0.268,-0.019l-0.133,0.009l0.09,-0.006l0.043,-0.003Zm0.267,-0.018l-0.141,0.009l0.107,-0.007l0.034,-0.002Zm0.268,-0.017l-0.158,0.009l0.132,-0.008l0.026,-0.001Zm1.271,-0.063c-0.403,0.015 -0.806,0.035 -1.21,0.059c0.404,-0.024 0.807,-0.044 1.21,-0.059Z" style="fill:#fff;"/></g></svg>